HIERARCHY
ROOT hip
{
	OFFSET	0.00  0.00  0.00 
	CHANNELS 6 Xposition Yposition Zposition Xrotation Zrotation Yrotation
	JOINT abdomen
	{
		OFFSET	0.000000 0.000000 0.000000
		CHANNELS 3 Xrotation Zrotation Yrotation
		JOINT chest
		{
			OFFSET	0.000000 5.018152 -1.882228
			CHANNELS 3 Xrotation Zrotation Yrotation
			JOINT neckDummy
			{
				OFFSET	0.000000 8.316447 0.784897
				CHANNELS 3 Xrotation Yrotation Zrotation
				JOINT neck
				{
					OFFSET	0.000000 2.280413 -0.392801
					CHANNELS 3 Xrotation Zrotation Yrotation
					JOINT head
					{
						OFFSET	0.000000 3.496879 0.529469
						CHANNELS 3 Xrotation Zrotation Yrotation
						JOINT figureHair
						{
							OFFSET	0.000000 4.699570 0.720622
							CHANNELS 3 Zrotation Yrotation Xrotation
							End Site
							{
								OFFSET 0.000000 -6.419331 0.000000
							}
						}
					}
				}
			}
			JOINT lCollar
			{
				OFFSET	0.599237 8.316447 0.784897
				CHANNELS 3 Yrotation Zrotation Xrotation
				JOINT lShldr
				{
					OFFSET	6.421198 0.010146 -0.332128
					CHANNELS 3 Zrotation Yrotation Xrotation
					JOINT lForeArm
					{
						OFFSET	10.552783 0.025574 0.125508
						CHANNELS 3 Yrotation Zrotation Xrotation
						JOINT lHand
						{
							OFFSET	11.035963 0.319619 0.041520
							CHANNELS 3 Zrotation Yrotation Xrotation
							End Site
							{
								OFFSET 10.353753 0.000000 0.000000
							}
						}
					}
				}
			}
			JOINT rCollar
			{
				OFFSET	-0.599237 8.316447 0.784897
				CHANNELS 3 Yrotation Zrotation Xrotation
				JOINT rShldr
				{
					OFFSET	-6.421198 0.010146 -0.332128
					CHANNELS 3 Zrotation Yrotation Xrotation
					JOINT rForeArm
					{
						OFFSET	-10.552783 0.025574 0.125508
						CHANNELS 3 Yrotation Zrotation Xrotation
						JOINT rHand
						{
							OFFSET	-11.035963 0.319619 0.041520
							CHANNELS 3 Zrotation Yrotation Xrotation
							End Site
							{
								OFFSET -10.353753 0.000000 0.000000
							}
						}
					}
				}
			}
		}
	}
	JOINT lThigh
	{
		OFFSET	4.500466 -6.400484 -1.832696
		CHANNELS 3 Xrotation Zrotation Yrotation
		JOINT lShin
		{
			OFFSET	-1.359117 -18.918689 1.179887
			CHANNELS 3 Xrotation Zrotation Yrotation
			JOINT lFoot
			{
				OFFSET	-0.652380 -17.215186 -0.312137
				CHANNELS 3 Xrotation Yrotation Zrotation
				End Site
				{
					OFFSET 0.000000 0.000000 10.353752
				}
			}
		}
	}
	JOINT rThigh
	{
		OFFSET	-4.500466 -6.400484 -1.832696
		CHANNELS 3 Xrotation Zrotation Yrotation
		JOINT rShin
		{
			OFFSET	1.359117 -18.918689 1.179887
			CHANNELS 3 Xrotation Zrotation Yrotation
			JOINT rFoot
			{
				OFFSET	0.652380 -17.215186 -0.312137
				CHANNELS 3 Xrotation Yrotation Zrotation
				End Site
				{
					OFFSET 0.000000 0.000000 10.353752
				}
			}
		}
	}
}
MOTION
Frames:     18
Frame Time: 0.066667
0.994552 40.989651 0.562035 -1.728760 -9.547900 -0.326709 -0.115528 -6.886040 -2.575950 14.005100 11.193800 2.547370 0.000000 0.000000 0.000000 -0.460901 -9.764480 6.476710 23.900700 4.997470 -19.077499 0.000000 0.000000 0.000000 3.540560 -7.187660 -0.014568 -51.770901 8.976350 18.700899 -95.791496 9.545630 26.519600 5.969490 -0.173112 31.175699 -2.021920 5.690310 -0.063351 62.294601 29.584999 15.823300 23.580400 20.566601 -0.210362 2.261370 0.879272 0.282967 -15.093266 14.305773 -2.017740 36.724964 -4.098417 -2.950286 -20.437069 1.163581 -0.220074 -2.715594 7.001796 0.329137 10.149717 3.038865 -8.898087 -5.472914 -20.362209 -0.347394 
0.994552 40.989651 0.562035 -1.728760 -9.547900 -0.326709 0.272442 -7.079550 -2.740503 14.029470 11.111418 2.539271 0.000000 0.000000 0.000000 0.982528 -9.932975 6.192886 22.565973 4.839001 -19.183563 0.000000 0.000000 0.000000 3.540560 -7.187660 -0.014568 -51.770901 8.976350 18.700899 -96.172729 9.914522 26.522549 5.969490 -0.173112 31.175699 -1.176416 5.325622 -0.098030 58.015823 29.639444 12.505685 35.745728 19.432806 -5.258602 1.374229 1.830736 -1.997827 -15.093266 14.305773 -2.017740 36.724964 -4.098417 -2.950286 -20.437069 1.163581 -0.220074 -2.715594 7.001796 0.329137 10.149717 3.038865 -8.898087 -5.472914 -20.362209 -0.347394 
0.994552 40.989651 0.562035 -1.728760 -9.547900 -0.326709 0.729367 -7.307453 -2.934303 14.132850 11.014609 2.542589 0.000000 0.000000 0.000000 3.066677 -10.099463 5.769743 20.994022 4.652367 -19.308479 0.000000 0.000000 0.000000 3.540560 -7.187660 -0.014568 -51.770901 8.976350 18.700899 -96.664185 10.390066 26.526352 5.969490 -0.173112 31.175699 -0.180637 4.896117 -0.138873 52.573273 29.708700 8.285720 50.898758 18.158838 -11.583434 0.572667 3.232293 -4.647726 -15.093266 14.305773 -2.017740 36.724964 -4.098417 -2.950286 -20.437069 1.163581 -0.220074 -2.715594 7.001796 0.329137 10.149717 3.038865 -8.898087 -5.472914 -20.362209 -0.347394 
0.994552 40.989651 0.562035 -1.728760 -9.547900 -0.326709 1.209288 -7.546825 -3.137856 14.286386 10.913096 2.553818 0.000000 0.000000 0.000000 5.486345 -10.255009 5.271927 19.342958 4.456339 -19.439680 0.000000 0.000000 0.000000 3.540560 -7.187660 -0.014568 -51.770893 8.976349 18.700897 -97.205727 10.914086 26.530539 5.969489 -0.173112 31.175695 0.865257 4.444996 -0.181772 46.616032 29.784500 3.666685 67.305603 16.858234 -18.452568 -0.122339 4.873119 -7.408053 -15.084099 14.301081 -2.016745 36.705513 -4.096285 -2.948050 -20.427603 1.157714 -0.221236 -2.708648 7.004427 0.330503 10.141319 3.032820 -8.899239 -5.472756 -20.362251 -0.347423 
0.994552 40.989651 0.562035 -1.728760 -9.547900 -0.326709 1.706698 -7.794919 -3.348827 14.424340 10.807910 2.561825 0.000000 0.000000 0.000000 7.883843 -10.425087 4.781442 17.631721 4.253167 -19.575659 0.000000 0.000000 0.000000 3.540559 -7.187658 -0.014568 -51.770882 8.976346 18.700893 -97.754509 11.445127 26.534777 5.969488 -0.173112 31.175688 1.949265 3.977435 -0.226234 40.560520 29.861546 -1.028538 84.063400 15.494091 -25.459135 -0.910595 6.493145 -10.276775 -15.159793 14.308661 -2.031819 36.871468 -4.108065 -2.965119 -20.515436 1.161503 -0.209865 -2.708645 7.004430 0.330503 10.141317 3.032827 -8.899238 -5.472756 -20.362251 -0.347423 
0.994552 40.989651 0.562035 -1.728760 -9.547900 -0.326709 2.216091 -8.048992 -3.564881 14.480986 10.700088 2.555476 0.000000 0.000000 0.000000 9.901486 -10.635180 4.380295 15.879266 4.045101 -19.714920 0.000000 0.000000 0.000000 3.540558 -7.187657 -0.014568 -51.770878 8.976344 18.700891 -98.267738 11.941736 26.538748 5.969487 -0.173112 31.175684 3.059387 3.498611 -0.271767 34.823181 29.934551 -5.477068 100.269310 14.029515 -32.196281 -1.991908 7.832303 -13.251864 -15.159795 14.308662 -2.031819 36.871468 -4.108069 -2.965119 -20.515436 1.161501 -0.209866 -2.708642 7.004433 0.330503 10.141315 3.032833 -8.899238 -5.472757 -20.362247 -0.347423 
0.994552 40.989651 0.562035 -1.728760 -9.547900 -0.326709 2.731960 -8.306296 -3.783681 14.390585 10.590657 2.523637 0.000000 0.000000 0.000000 11.181585 -10.910763 4.150489 14.104531 3.834390 -19.855951 0.000000 0.000000 0.000000 3.540557 -7.187654 -0.014568 -51.770870 8.976341 18.700888 -98.702553 12.362456 26.542116 5.969485 -0.173112 31.175678 4.183622 3.013700 -0.317879 29.820435 29.998213 -9.356026 115.020454 12.427604 -38.257133 -3.566082 8.630521 -16.331285 -15.084099 14.301084 -2.016745 36.705513 -4.096290 -2.948052 -20.427603 1.157712 -0.221237 -2.708640 7.004432 0.330503 10.141315 3.032836 -8.899238 -5.472756 -20.362251 -0.347423 
0.994552 40.989651 0.562035 -1.728760 -9.547900 -0.326709 3.248798 -8.564085 -4.002892 14.087402 10.480652 2.455173 0.000000 0.000000 0.000000 11.366452 -11.277309 4.174028 12.326462 3.623284 -19.997246 0.000000 0.000000 0.000000 3.540555 -7.187651 -0.014568 -51.770855 8.976336 18.700882 -99.016083 12.665830 26.544542 5.969482 -0.173112 31.175669 5.309969 2.527878 -0.364077 25.968702 30.047228 -12.342528 127.413963 10.651453 -43.234825 -5.832923 8.627729 -19.513006 -15.084097 14.301080 -2.016745 36.705513 -4.096290 -2.948052 -20.427603 1.157713 -0.221236 -2.708636 7.004434 0.330503 10.141312 3.032841 -8.899237 -5.472758 -20.362247 -0.347423 
0.994552 40.989651 0.562035 -1.728760 -9.547900 -0.326709 3.761100 -8.819610 -4.220180 13.505700 10.371100 2.338950 0.000000 0.000000 0.000000 10.098400 -11.760300 4.532920 10.564000 3.414030 -20.137300 0.000000 0.000000 0.000000 3.540554 -7.187648 -0.014568 -51.770844 8.976334 18.700878 -99.165497 12.810400 26.545700 5.969480 -0.173112 31.175663 6.426430 2.046320 -0.409870 23.684401 30.076300 -14.113700 136.546997 8.664160 -46.722500 -8.992240 7.563860 -22.795000 -15.164036 14.304156 -2.030619 36.872765 -4.094323 -2.960841 -20.515606 1.158391 -0.210431 -2.708634 7.004434 0.330503 10.141312 3.032844 -8.899237 -5.472757 -20.362251 -0.347423 
0.994552 40.989651 0.562035 -1.728760 -9.547900 -0.326709 4.262812 -9.069851 -4.432976 12.639507 10.263262 2.174131 0.000000 0.000000 0.000000 7.326315 -12.359520 5.238210 8.837967 3.209101 -20.274460 0.000000 0.000000 0.000000 3.540553 -7.187645 -0.014568 -51.770832 8.976331 18.700876 -99.165497 12.810400 26.545700 5.969478 -0.173112 31.175661 7.519814 1.574715 -0.454716 23.159027 30.082987 -14.521056 141.916016 6.495003 -48.506519 -13.048533 5.403139 -26.144697 -15.159700 14.308763 -2.031844 36.871811 -4.108073 -2.955424 -20.515928 1.152392 -0.221284 -2.708630 7.004435 0.330503 10.141312 3.032846 -8.899237 -5.472756 -20.362249 -0.347423 
0.994552 40.989651 0.562035 -1.728760 -9.547900 -0.326709 4.745704 -9.310706 -4.637789 11.721900 10.159300 2.001060 0.000000 0.000000 0.000000 4.225370 -12.972000 6.017130 7.176686 3.011861 -20.406477 0.000000 0.000000 0.000000 3.540552 -7.187643 -0.014568 -51.770821 8.976327 18.700874 -99.207649 12.851172 26.546028 5.969476 -0.173112 31.175659 8.572180 1.120803 -0.497880 23.684401 30.076300 -14.113700 144.615005 4.437990 -49.146198 -17.225100 3.006980 -29.407400 -15.164031 14.304160 -2.030620 36.872765 -4.094333 -2.960844 -20.515606 1.158389 -0.210431 -2.708627 7.004438 0.330503 10.141309 3.032851 -8.899237 -5.472755 -20.362249 -0.347423 
0.994552 40.989651 0.562035 -1.728760 -9.547900 -0.326709 5.200994 -9.537794 -4.830896 10.993153 10.061512 1.861341 0.000000 0.000000 0.000000 2.005992 -13.491451 6.588689 5.610360 2.825895 -20.530949 0.000000 0.000000 0.000000 3.540552 -7.187641 -0.014568 -51.770809 8.976324 18.700872 -99.327477 12.967105 26.546957 5.969474 -0.173112 31.175661 9.564396 0.692835 -0.538577 24.472895 30.066265 -13.502328 145.924515 2.786666 -49.282764 -20.720486 1.262721 -32.421833 -15.159789 14.308667 -2.031821 36.871830 -4.107879 -2.955364 -20.515928 1.152392 -0.221284 -2.708624 7.004437 0.330503 10.141307 3.032857 -8.899236 -5.472757 -20.362251 -0.347423 
0.994552 40.989651 0.562035 -1.728760 -9.547900 -0.326709 5.619907 -9.746737 -5.008574 10.483271 9.971816 1.760411 0.000000 0.000000 0.000000 0.793276 -13.901066 6.922838 4.169186 2.654787 -20.645473 0.000000 0.000000 0.000000 3.540552 -7.187641 -0.014568 -51.770802 8.976323 18.700872 -99.507126 13.140927 26.548347 5.969474 -0.173112 31.175665 10.477332 0.299062 -0.576022 25.318800 30.055498 -12.846441 146.273941 1.567964 -49.112213 -23.415508 0.264173 -35.122543 -15.159698 14.308764 -2.031845 36.871811 -4.108078 -2.955426 -20.515928 1.152391 -0.221284 -2.708623 7.004439 0.330503 10.141306 3.032860 -8.899236 -5.472757 -20.362247 -0.347423 
0.994552 40.989651 0.562035 -1.728760 -9.547900 -0.326709 5.993660 -9.933156 -5.167098 10.169691 9.892034 1.694667 0.000000 0.000000 0.000000 0.440991 -14.206400 7.052257 2.883367 2.502125 -20.747648 0.000000 0.000000 0.000000 3.540551 -7.187640 -0.014568 -51.770782 8.976321 18.700869 -99.728752 13.355368 26.550060 5.969472 -0.173112 31.175663 11.291855 -0.052263 -0.609431 26.161884 30.044769 -12.192744 145.879883 0.742171 -48.719231 -25.361534 -0.093233 -37.468014 -15.084090 14.301090 -2.016747 36.705513 -4.096303 -2.948057 -20.427603 1.157714 -0.221236 -2.708619 7.004436 0.330503 10.141303 3.032866 -8.899237 -5.472756 -20.362249 -0.347423 
0.994552 40.989651 0.562035 -1.728760 -9.547900 -0.326709 6.313478 -10.092673 -5.302745 10.029852 9.823986 1.660509 0.000000 0.000000 0.000000 0.802904 -14.413015 7.009629 1.783100 2.371492 -20.835075 0.000000 0.000000 0.000000 3.540551 -7.187642 -0.014568 -51.770782 8.976323 18.700872 -99.974503 13.593155 26.551958 5.969473 -0.173112 31.175673 11.988834 -0.352889 -0.638018 26.941917 30.034847 -11.587938 144.958954 0.269572 -48.188507 -26.609940 0.085935 -39.416737 -15.164033 14.304158 -2.030620 36.872765 -4.094331 -2.960844 -20.515606 1.158390 -0.210431 -2.708622 7.004442 0.330503 10.141305 3.032861 -8.899237 -5.472756 -20.362251 -0.347423 
0.994552 40.989651 0.562035 -1.728760 -9.547900 -0.326709 6.570582 -10.220911 -5.411793 10.041191 9.769497 1.654331 0.000000 0.000000 0.000000 1.732781 -14.526471 6.827637 0.898587 2.266475 -20.905359 0.000000 0.000000 0.000000 3.540552 -7.187643 -0.014568 -51.770782 8.976326 18.700874 -100.226524 13.837020 26.553904 5.969474 -0.173112 31.175680 12.549141 -0.594564 -0.661000 27.598665 30.026495 -11.078723 143.727722 0.110451 -47.604721 -27.212101 0.697107 -40.927200 -15.159789 14.308667 -2.031821 36.871830 -4.107879 -2.955364 -20.515928 1.152392 -0.221284 -2.708624 7.004437 0.330503 10.141307 3.032857 -8.899236 -5.472757 -20.362251 -0.347423 
0.994552 40.989651 0.562035 -1.728760 -9.547900 -0.326709 6.756194 -10.313490 -5.490519 10.181147 9.730388 1.672533 0.000000 0.000000 0.000000 3.084392 -14.552328 6.538966 0.260029 2.190660 -20.956099 0.000000 0.000000 0.000000 3.540551 -7.187643 -0.014568 -51.770771 8.976327 18.700871 -100.466980 14.069693 26.555759 5.969474 -0.173112 31.175676 12.953645 -0.769038 -0.677591 28.071896 30.020475 -10.711799 142.402771 0.225095 -47.052559 -27.219391 1.635714 -41.957897 -15.084095 14.301084 -2.016746 36.705513 -4.096295 -2.948054 -20.427603 1.157713 -0.221236 -2.708622 7.004438 0.330503 10.141306 3.032861 -8.899236 -5.472756 -20.362249 -0.347423 
0.994552 40.989651 0.562035 -1.728760 -9.547900 -0.326709 6.861536 -10.366034 -5.535199 10.427156 9.708481 1.711511 0.000000 0.000000 0.000000 4.711501 -14.496147 6.176297 -0.102375 2.147633 -20.984896 0.000000 0.000000 0.000000 3.540550 -7.187642 -0.014568 -51.770760 8.976327 18.700869 -100.678024 14.273903 26.557390 5.969473 -0.173112 31.175671 13.183215 -0.868058 -0.687008 28.301373 30.017555 -10.533869 141.200699 0.573789 -46.616707 -26.683184 2.797188 -42.467316 -15.159698 14.308766 -2.031845 36.871811 -4.108079 -2.955427 -20.515928 1.152391 -0.221284 -2.708619 7.004438 0.330503 10.141304 3.032864 -8.899236 -5.472755 -20.362251 -0.347423 
